<svg width="125" height="47" viewBox="0 0 125 47" fill="none" xmlns="http://www.w3.org/2000/svg">
<path d="M7.22314 44.0872H6.56118V42.6893C6.27406 43.1772 5.87794 43.5574 5.37283 43.8276C4.86771 44.0977 4.31474 44.2341 3.71127 44.2341C2.78345 44.2341 1.99653 43.9194 1.34786 43.2873C0.699185 42.6552 0.374848 41.8343 0.374848 40.8219C0.374848 39.8174 0.699185 38.9991 1.34786 38.3644C1.99653 37.7297 2.78345 37.4124 3.71127 37.4124C4.31474 37.4124 4.86771 37.5488 5.37283 37.8189C5.87794 38.0891 6.27406 38.4694 6.56118 38.9572V34.4933H7.22314V44.0872ZM5.73704 42.8624C6.28735 42.3379 6.56118 41.6586 6.56118 40.8246C6.56118 39.9905 6.28469 39.3112 5.73172 38.7867C5.17876 38.2622 4.53274 37.9999 3.79368 37.9999C3.02006 37.9999 2.36341 38.2595 1.82905 38.7788C1.29469 39.2981 1.02618 39.98 1.02618 40.8246C1.02618 41.6769 1.29203 42.3615 1.82373 42.8755C2.35543 43.3896 3.01208 43.6492 3.79634 43.6492C4.54072 43.6466 5.18939 43.3843 5.73704 42.8624Z" fill="white"/>
<path d="M11.3146 35.2277C11.4129 35.3247 11.4635 35.4453 11.4635 35.587C11.4635 35.7286 11.4129 35.8466 11.3146 35.941C11.2162 36.0355 11.0939 36.0801 10.9504 36.0801C10.7962 36.0801 10.6712 36.0328 10.5729 35.941C10.4745 35.8466 10.424 35.7312 10.424 35.587C10.424 35.4427 10.4745 35.3247 10.5729 35.2277C10.6712 35.1306 10.7988 35.0808 10.9504 35.0808C11.0966 35.0808 11.2162 35.1306 11.3146 35.2277ZM10.626 44.0872V37.5724H11.2747V44.0872H10.626Z" fill="white"/>
<path d="M20.6752 43.6204C20.6672 44.5357 20.3694 45.2622 19.7846 45.8051C19.1997 46.348 18.4261 46.6182 17.461 46.6182C15.8128 46.6182 14.7281 46.0097 14.207 44.7927L14.7866 44.4465C15.2624 45.4956 16.1557 46.0176 17.461 46.0176C18.2267 46.0176 18.8434 45.792 19.3113 45.3435C19.7792 44.895 20.0185 44.2971 20.0265 43.5522V42.3143C19.4496 43.248 18.551 43.7122 17.3254 43.7122C16.4162 43.7122 15.6426 43.4158 15.0019 42.8257C14.3612 42.2356 14.0422 41.4776 14.0422 40.5544C14.0422 39.6391 14.3612 38.889 15.0019 38.3041C15.6426 37.7193 16.4162 37.4255 17.3254 37.4255C18.559 37.4255 19.4602 37.8871 20.0265 38.8103V37.5724H20.6752V43.6204ZM19.2555 42.4218C19.7686 41.9418 20.0265 41.3203 20.0265 40.557C20.0265 39.7938 19.7686 39.1749 19.2555 38.7054C18.7424 38.2359 18.1257 37.9999 17.4052 37.9999C16.6395 37.9999 15.9935 38.2359 15.4671 38.7054C14.9408 39.1749 14.6776 39.7938 14.6776 40.557C14.6776 41.3307 14.9408 41.955 15.4671 42.4297C15.9935 42.9044 16.6395 43.1431 17.4052 43.1431C18.1257 43.1404 18.7424 42.9018 19.2555 42.4218Z" fill="white"/>
<path d="M24.7666 35.2277C24.8649 35.3247 24.9155 35.4453 24.9155 35.587C24.9155 35.7286 24.8649 35.8466 24.7666 35.941C24.6682 36.0355 24.5459 36.0801 24.4024 36.0801C24.2482 36.0801 24.1232 36.0328 24.0249 35.941C23.9265 35.8466 23.876 35.7312 23.876 35.587C23.876 35.4427 23.9265 35.3247 24.0249 35.2277C24.1232 35.1306 24.2508 35.0808 24.4024 35.0808C24.5459 35.0808 24.6682 35.1306 24.7666 35.2277ZM24.078 44.0872V37.5724H24.7267V44.0872H24.078Z" fill="white"/>
<path d="M31.6946 43.7148C31.2347 44.061 30.7535 44.2341 30.2484 44.2341C29.6529 44.2341 29.177 44.0584 28.8181 43.7069C28.4592 43.3555 28.2785 42.8703 28.2785 42.2487V38.131H26.8322V37.5724H28.2785V35.427H28.9404V37.5724H31.4128V38.131H28.9404V42.2067C28.9404 42.6421 29.0654 42.9857 29.3126 43.2401C29.5599 43.4919 29.8869 43.6204 30.2909 43.6204C30.7057 43.6204 31.0885 43.4735 31.4394 43.1798L31.6946 43.7148Z" fill="white"/>
<path d="M39.7047 44.0872H39.0427V42.7155C38.7556 43.1955 38.3595 43.5679 37.8597 43.8354C37.3599 44.103 36.8096 44.2341 36.2061 44.2341C35.2703 44.2341 34.4781 43.9194 33.8294 43.2873C33.1807 42.6552 32.8564 41.8343 32.8564 40.8219C32.8564 39.8174 33.1834 38.9991 33.8347 38.3644C34.4861 37.7297 35.2783 37.4124 36.2061 37.4124C36.8096 37.4124 37.3599 37.5488 37.8597 37.8189C38.3595 38.0891 38.7529 38.4641 39.0427 38.9441V37.5724H39.7047V44.0872ZM38.2186 42.8624C38.7689 42.3379 39.0427 41.6586 39.0427 40.8246C39.0427 39.9905 38.7662 39.3112 38.2133 38.7867C37.6603 38.2622 37.0143 37.9999 36.2752 37.9999C35.5016 37.9999 34.845 38.2595 34.3106 38.7788C33.7762 39.2981 33.5077 39.98 33.5077 40.8246C33.5077 41.6769 33.7736 42.3615 34.3053 42.8755C34.837 43.3896 35.4936 43.6492 36.2779 43.6492C37.0196 43.6466 37.6683 43.3843 38.2186 42.8624Z" fill="white"/>
<path d="M42.972 44.0872V34.4959H43.634V44.0872H42.972Z" fill="white"/>
<path d="M55.3287 43.2217C55.778 42.9464 56.0811 42.5634 56.2326 42.0756L56.8414 42.2487C56.6712 42.8519 56.3017 43.3345 55.7328 43.6938C55.1665 44.0531 54.5232 44.2341 53.8027 44.2341C52.8563 44.2341 52.0534 43.9194 51.3915 43.2873C50.7295 42.6552 50.3998 41.8343 50.3998 40.8219C50.3998 39.8279 50.7322 39.0096 51.3994 38.3697C52.0667 37.7297 52.8669 37.4098 53.8027 37.4098C54.5125 37.4098 55.1506 37.596 55.7142 37.9684C56.2778 38.3408 56.6579 38.8392 56.8547 39.4607L56.2326 39.6601C56.0784 39.146 55.778 38.7421 55.3287 38.4536C54.8794 38.1651 54.369 38.0209 53.8027 38.0209C53.0371 38.0209 52.3857 38.2831 51.8514 38.8077C51.317 39.3322 51.0485 40.001 51.0485 40.8193C51.0485 41.6638 51.3144 42.3431 51.8461 42.8572C52.3778 43.3712 53.0291 43.6309 53.8054 43.6309C54.3716 43.6335 54.8794 43.4971 55.3287 43.2217Z" fill="white"/>
<path d="M64.7983 38.3907C65.4656 39.0359 65.7979 39.8437 65.7979 40.8219C65.7979 41.7976 65.4656 42.6106 64.7983 43.2611C64.131 43.9089 63.3095 44.2341 62.3259 44.2341C61.3422 44.2341 60.5207 43.9089 59.8535 43.2611C59.1862 42.6133 58.8539 41.8002 58.8539 40.8219C58.8539 39.8437 59.1862 39.0332 59.8535 38.3907C60.5207 37.7481 61.3422 37.4255 62.3259 37.4255C63.3095 37.4255 64.131 37.7481 64.7983 38.3907ZM64.3304 42.8414C64.8754 42.3038 65.1465 41.6324 65.1465 40.8219C65.1465 40.0036 64.8754 39.3296 64.3357 38.7972C63.796 38.2648 63.1261 37.9973 62.3232 37.9973C61.5203 37.9973 60.8504 38.2648 60.3107 38.7972C59.771 39.3296 59.4999 40.0063 59.4999 40.8219C59.4999 41.6297 59.771 42.3038 60.316 42.8414C60.861 43.3791 61.5283 43.6466 62.3205 43.6466C63.1181 43.6466 63.788 43.3791 64.3304 42.8414Z" fill="white"/>
<path d="M78.0589 38.0655C78.5082 38.5008 78.7341 39.0726 78.7341 39.7833V44.0872H78.0722V39.8778C78.0722 39.3191 77.8994 38.8706 77.5511 38.5323C77.2055 38.194 76.7482 38.0261 76.1793 38.0261C75.4854 38.0261 74.9325 38.2622 74.5177 38.7316C74.103 39.2011 73.8957 39.8463 73.8957 40.6646V44.0872H73.2337V39.8778C73.2337 39.3191 73.0609 38.8706 72.7126 38.5323C72.367 38.194 71.9098 38.0261 71.3408 38.0261C70.6576 38.0261 70.1099 38.2648 69.7005 38.7395C69.2911 39.2142 69.0864 39.8568 69.0864 40.6646V44.0872H68.4245V37.5724H69.0864V38.8523C69.5623 37.8924 70.3652 37.4124 71.4897 37.4124C72.04 37.4124 72.5186 37.5488 72.928 37.8242C73.3374 38.0995 73.6192 38.472 73.7707 38.9441C74.0126 38.4641 74.3556 38.0891 74.7969 37.8189C75.2382 37.5488 75.746 37.4124 76.3229 37.4124C77.0327 37.4124 77.6096 37.6301 78.0589 38.0655Z" fill="white"/>
<path d="M91.4976 38.0655C91.9469 38.5008 92.1728 39.0726 92.1728 39.7833V44.0872H91.5109V39.8778C91.5109 39.3191 91.3381 38.8706 90.9898 38.5323C90.6415 38.194 90.187 38.0261 89.618 38.0261C88.9242 38.0261 88.3712 38.2622 87.9565 38.7316C87.5417 39.2011 87.3344 39.8463 87.3344 40.6646V44.0872H86.6724V39.8778C86.6724 39.3191 86.4996 38.8706 86.1513 38.5323C85.8057 38.194 85.3485 38.0261 84.7796 38.0261C84.0963 38.0261 83.5487 38.2648 83.1393 38.7395C82.7299 39.2142 82.5251 39.8568 82.5251 40.6646V44.0872H81.8632V37.5724H82.5251V38.8523C83.001 37.8924 83.8039 37.4124 84.9284 37.4124C85.4787 37.4124 85.9573 37.5488 86.3667 37.8242C86.7761 38.0995 87.0579 38.472 87.2094 38.9441C87.4513 38.4641 87.7943 38.0891 88.2356 37.8189C88.6769 37.5488 89.1847 37.4124 89.7616 37.4124C90.4714 37.4124 91.0483 37.6301 91.4976 38.0655Z" fill="white"/>
<path d="M101.302 40.8901H95.3205C95.3285 41.7242 95.605 42.3956 96.1446 42.9018C96.6843 43.408 97.3064 43.6623 98.0082 43.6623C99.2684 43.6623 100.124 43.1063 100.574 41.9969L101.153 42.1307C100.901 42.8152 100.505 43.3371 99.9649 43.6964C99.4252 44.0558 98.7712 44.2367 98.0056 44.2367C97.115 44.2367 96.3361 43.9246 95.6688 43.303C95.0015 42.6815 94.6692 41.8632 94.6692 40.8508C94.6692 39.8305 95.0068 39.0018 95.6821 38.3671C96.3573 37.7324 97.1575 37.415 98.0854 37.415C98.9946 37.415 99.7496 37.714 100.348 38.3146C100.946 38.9152 101.265 39.6942 101.299 40.6541V40.8901H101.302ZM96.2855 38.6503C95.7485 39.0857 95.4375 39.6627 95.3471 40.3813H100.64C100.56 39.6365 100.284 39.0516 99.816 38.6293C99.3481 38.2071 98.7712 37.9973 98.088 37.9973C97.4234 37.9999 96.8226 38.2149 96.2855 38.6503Z" fill="white"/>
<path d="M107.866 37.5593L107.799 38.173C107.709 38.1546 107.579 38.1468 107.409 38.1468C106.534 38.1468 105.848 38.4562 105.348 39.0726C104.849 39.6889 104.599 40.4548 104.599 41.3701V44.0872H103.937V37.5724H104.599V39.3978C104.878 38.8287 105.258 38.3749 105.739 38.0314C106.22 37.6904 106.776 37.5173 107.406 37.5173C107.589 37.5199 107.741 37.533 107.866 37.5593Z" fill="white"/>
<path d="M114.121 43.2217C114.571 42.9464 114.874 42.5634 115.025 42.0756L115.634 42.2487C115.464 42.8519 115.094 43.3345 114.526 43.6938C113.959 44.0531 113.316 44.2341 112.595 44.2341C111.649 44.2341 110.846 43.9194 110.184 43.2873C109.522 42.6552 109.193 41.8343 109.193 40.8219C109.193 39.8279 109.525 39.0096 110.192 38.3697C110.859 37.7297 111.66 37.4098 112.595 37.4098C113.305 37.4098 113.943 37.596 114.507 37.9684C115.07 38.3408 115.451 38.8392 115.647 39.4607L115.025 39.6601C114.871 39.146 114.571 38.7421 114.121 38.4536C113.672 38.1651 113.162 38.0209 112.595 38.0209C111.83 38.0209 111.178 38.2831 110.644 38.8077C110.11 39.3322 109.841 40.001 109.841 40.8193C109.841 41.6638 110.107 42.3431 110.639 42.8572C111.17 43.3712 111.822 43.6309 112.598 43.6309C113.162 43.6335 113.669 43.4971 114.121 43.2217Z" fill="white"/>
<path d="M124.277 40.8901H118.295C118.303 41.7242 118.58 42.3956 119.119 42.9018C119.659 43.408 120.281 43.6623 120.983 43.6623C122.243 43.6623 123.099 43.1063 123.548 41.9969L124.128 42.1307C123.875 42.8152 123.479 43.3371 122.94 43.6964C122.4 44.0558 121.746 44.2367 120.98 44.2367C120.09 44.2367 119.311 43.9246 118.644 43.303C117.976 42.6815 117.644 41.8632 117.644 40.8508C117.644 39.8305 117.982 39.0018 118.657 38.3671C119.332 37.7324 120.132 37.415 121.06 37.415C121.969 37.415 122.724 37.714 123.322 38.3146C123.921 38.9152 124.24 39.6942 124.274 40.6541V40.8901H124.277ZM119.26 38.6503C118.723 39.0857 118.412 39.6627 118.322 40.3813H123.615C123.535 39.6365 123.259 39.0516 122.791 38.6293C122.323 38.2071 121.746 37.9973 121.063 37.9973C120.395 37.9999 119.795 38.2149 119.26 38.6503Z" fill="white"/>
<path d="M6.86956 22.9166C7.20188 24.1519 8.16159 24.7709 9.74872 24.7709C10.3894 24.7709 10.8866 24.6633 11.2455 24.4483C11.6044 24.2332 11.7825 23.9631 11.7825 23.6352C11.7825 23.0556 11.1949 22.6753 10.0172 22.4996L6.14113 21.857C2.30226 21.1751 0.382824 19.2815 0.382824 16.1788C0.382824 14.1331 1.20164 12.5122 2.83928 11.3136C4.47691 10.1151 6.54789 9.51445 9.05485 9.51445C11.5884 9.51445 13.6461 9.9813 15.2332 10.915C16.8203 11.8487 17.8438 13.1627 18.3038 14.8517L11.8569 16.1027C11.7798 15.6228 11.4927 15.1874 10.9929 14.7966C10.4931 14.4058 9.86038 14.2091 9.09207 14.2091C7.89043 14.2091 7.28961 14.5868 7.28961 15.3448C7.28961 15.8483 7.71231 16.1893 8.55505 16.3676L12.9682 17.2384C14.8876 17.5925 16.3205 18.2927 17.267 19.3392C18.2134 20.3857 18.6866 21.7049 18.6866 23.2943C18.6866 25.34 17.8359 26.9294 16.1344 28.065C14.433 29.2006 12.253 29.7698 9.59187 29.7698C7.03439 29.7698 4.89696 29.3082 3.18222 28.3876C1.47015 27.467 0.409409 26.0848 0 24.2411L6.86956 22.9166Z" fill="white"/>
<path d="M37.9341 12.3916C40.045 14.2852 41.1004 16.7086 41.1004 19.6592C41.1004 22.6097 40.045 25.0279 37.9341 26.9084C35.8233 28.7889 33.2578 29.7278 30.2404 29.7278C27.2204 29.7278 24.6576 28.7889 22.5467 26.9084C20.4359 25.0279 19.3805 22.6123 19.3805 19.6592C19.3805 16.706 20.4359 14.2826 22.5467 12.3916C24.6576 10.5006 27.223 9.55117 30.2404 9.55117C33.2578 9.55379 35.8233 10.498 37.9341 12.3916ZM33.0212 22.6517C33.8028 21.8439 34.191 20.8473 34.191 19.6618C34.191 18.4763 33.8081 17.4797 33.0398 16.6719C32.2715 15.8641 31.3384 15.4602 30.2378 15.4602C29.1372 15.4602 28.204 15.8641 27.4357 16.6719C26.6674 17.4797 26.2846 18.4763 26.2846 19.6618C26.2846 20.8473 26.6754 21.8439 27.4543 22.6517C28.2333 23.4595 29.1611 23.8634 30.2378 23.8634C31.3145 23.8634 32.2396 23.4595 33.0212 22.6517Z" fill="white"/>
<path d="M62.8948 22.0091C62.4854 24.3302 61.3396 26.2055 59.46 27.6322C57.5804 29.059 55.3606 29.7724 52.8031 29.7724C49.8097 29.7724 47.2708 28.8256 45.1865 26.932C43.1023 25.0384 42.0601 22.615 42.0601 19.6644C42.0601 16.685 43.1023 14.2511 45.1865 12.3575C47.2708 10.4639 49.8097 9.51708 52.8031 9.51708C55.3367 9.51708 57.5352 10.2173 59.4042 11.6179C61.2704 13.0184 62.4216 14.8674 62.8576 17.1649L56.2565 18.5288C56.0518 17.5452 55.6424 16.7925 55.0283 16.2758C54.4142 15.7592 53.6725 15.4995 52.8031 15.4995C51.6786 15.4995 50.7561 15.8982 50.0409 16.6929C49.3258 17.4875 48.9669 18.4789 48.9669 19.6644C48.9669 20.8499 49.3258 21.836 50.0409 22.6176C50.7561 23.3992 51.6786 23.7926 52.8031 23.7926C54.6455 23.7926 55.8232 22.7828 56.3336 20.7633L62.8948 22.0091Z" fill="white"/>
<path d="M71.6811 1.77216C72.4494 2.54325 72.8323 3.44546 72.8323 4.47882C72.8323 5.58823 72.4548 6.51143 71.6997 7.24317C70.9447 7.97491 69.9797 8.34209 68.802 8.34209C67.6243 8.34209 66.6592 7.97753 65.9042 7.24317C65.1492 6.51143 64.7717 5.59085 64.7717 4.47882C64.7717 3.41924 65.1545 2.50915 65.9228 1.7538C66.6911 0.995837 67.6508 0.618164 68.802 0.618164C69.9558 0.618164 70.9155 1.0037 71.6811 1.77216ZM65.2343 29.2006V10.0836H72.4096V29.2006H65.2343Z" fill="white"/>
<path d="M96.9714 29.2006H89.7961V27.648C88.3632 29.0616 86.4704 29.7671 84.1176 29.7671C81.4325 29.7671 79.1994 28.8282 77.4208 26.9477C75.6423 25.0672 74.7544 22.6386 74.7544 19.6592C74.7544 16.6561 75.6423 14.2144 77.4208 12.3339C79.1994 10.4534 81.4298 9.51445 84.1176 9.51445C86.4704 9.51445 88.3632 10.22 89.7961 11.6336V10.081H96.9714V29.2006ZM88.6423 22.6517C89.4107 21.8439 89.7935 20.8473 89.7935 19.6618C89.7935 18.4501 89.4107 17.4403 88.6423 16.6325C87.874 15.8247 86.9409 15.4208 85.8403 15.4208C84.6626 15.4208 83.7162 15.8195 83.001 16.6142C82.2859 17.4089 81.927 18.4239 81.927 19.6618C81.927 20.8735 82.2859 21.8754 83.001 22.6727C83.7162 23.4674 84.6626 23.866 85.8403 23.866C86.9409 23.8634 87.8767 23.4595 88.6423 22.6517Z" fill="white"/>
<path d="M100.002 29.2006V1.94264H107.177V29.2006H100.002Z" fill="white"/>
<path d="M124.633 28.1725L122.453 28.1594C122.254 28.1594 122.094 27.9994 122.094 27.8027L122.113 20.5719L113.172 29.3921L109.115 29.3475L120.063 18.5471L112.696 18.5655C112.497 18.5655 112.335 18.4081 112.335 18.2114L112.322 16.0582C112.322 15.8615 112.481 15.6988 112.683 15.6988H125V27.8132C124.997 28.0152 124.835 28.1752 124.633 28.1725Z" fill="white"/>
</svg>
